<svg width="249" height="262" viewBox="0 0 249 262" fill="none" xmlns="http://www.w3.org/2000/svg">
<ellipse cx="124.5" cy="131" rx="124.5" ry="131" fill="#AF6D53"/>
<path d="M124.5 262C140.85 262 157.039 258.612 172.144 252.028C187.249 245.445 200.974 235.795 212.535 223.631C224.096 211.467 233.266 197.025 239.523 181.132C245.78 165.238 249 148.203 249 131C249 113.797 245.78 96.7621 239.523 80.8685C233.266 64.9748 224.096 50.5335 212.535 38.369C200.974 26.2045 187.249 16.5551 172.144 9.97177C157.039 3.38841 140.85 -4.85352e-06 124.5 0L124.5 131L124.5 262Z" fill="white"/>
<path d="M124.5 262C157.519 262 189.187 248.198 212.535 223.631C235.883 199.064 249 165.743 249 131C249 96.2567 235.883 62.9363 212.535 38.369C189.187 13.8018 157.519 6.76478e-06 124.5 0L124.5 11.6149C154.592 11.6149 183.451 24.193 204.729 46.582C226.007 68.9711 237.961 99.3371 237.961 131C237.961 162.663 226.007 193.029 204.729 215.418C183.451 237.807 154.592 250.385 124.5 250.385L124.5 262Z" fill="white"/>
<path d="M124.5 262C157.519 262 189.187 248.198 212.535 223.631C235.883 199.064 249 165.743 249 131C249 96.2567 235.883 62.9363 212.535 38.369C189.187 13.8018 157.519 6.76478e-06 124.5 0L124.5 11.6149C154.592 11.6149 183.451 24.193 204.729 46.582C226.007 68.9711 237.961 99.3371 237.961 131C237.961 162.663 226.007 193.029 204.729 215.418C183.451 237.807 154.592 250.385 124.5 250.385L124.5 262Z" fill="#AF6D53"/>
</svg>
